<svg height="100" width="100" version="1.1" id="Layer_1" xmlns="http://www.w3.org/2000/svg" xmlns:xlink="http://www.w3.org/1999/xlink" x="0px" y="0px"
	 viewBox="0 0 512 512" style="enable-background:new 0 0 512 512;" xml:space="preserve">
<g>
	<g>
		<path d="M417.62,127.195c-2.415,42.595-37.821,76.509-81.01,76.509c-36.949,0-68.186-24.83-77.961-58.674L0.244,229.397h510.401
			H512L417.62,127.195z"/>
	</g>
</g>
<g>
	<g>
		<path d="M479.263,352.807c-15.072,0-29.243-5.87-39.901-16.528c-8.726-8.725-22.925-8.726-31.65,0.001
			c-10.657,10.658-24.828,16.528-39.902,16.528c-15.073,0-29.243-5.87-39.902-16.528c-8.725-8.727-22.926-8.725-31.65,0.001
			c-10.657,10.658-24.828,16.528-39.902,16.528c-15.073,0-29.243-5.87-39.902-16.528c-4.228-4.226-9.847-6.554-15.826-6.554
			c-5.977,0-11.597,2.328-15.825,6.554c-10.658,10.658-24.829,16.528-39.902,16.528c-15.074,0-29.244-5.87-39.903-16.528
			c-4.227-4.226-9.847-6.554-15.825-6.554c-5.979,0-11.598,2.328-15.826,6.554c-10.658,10.658-24.829,16.528-39.902,16.528
			c-12.2-0.002-23.809-3.852-33.444-10.972v47.089h510.645v-45.634C501.436,349.479,490.606,352.807,479.263,352.807z"/>
	</g>
</g>
<g>
	<g>
		<path d="M0,263.446v31.135l17.62,17.622c4.228,4.226,9.848,6.555,15.827,6.555c5.977,0,11.598-2.328,15.826-6.555
			c10.657-10.658,24.828-16.528,39.902-16.528c15.073,0,29.243,5.869,39.902,16.527c4.228,4.228,9.847,6.556,15.826,6.556
			c5.977,0,11.598-2.328,15.826-6.556c10.657-10.658,24.828-16.528,39.901-16.528c15.074,0,29.244,5.869,39.902,16.528
			c4.228,4.227,9.848,6.556,15.826,6.556c5.979,0,11.598-2.328,15.825-6.554c22.002-22.001,57.803-22.003,79.805-0.001
			c4.228,4.228,9.847,6.556,15.825,6.556c5.979,0,11.598-2.328,15.825-6.554c22.003-22.005,57.803-22.001,79.804-0.001
			c4.228,4.228,9.848,6.556,15.826,6.556s11.598-2.328,15.826-6.556l15.556-15.556v-33.199H0z"/>
	</g>
</g>
<g>
	<g>
		<path d="M0,422.976v16.727c0,20.165,16.347,36.512,36.512,36.512h437.621c20.165,0,36.512-16.347,36.512-36.512v-16.727H0z"/>
	</g>
</g>
<g>
	<g>
		<path d="M333.464,36.151c-0.409-0.245-0.87-0.367-1.329-0.367c-0.455,0-0.91,0.121-1.317,0.361
			c-0.816,0.484-1.301,1.376-1.265,2.326c0.909,23.4-40.045,51.273-40.045,84.081c0.001,26.014,21.09,47.102,47.103,47.102
			s47.102-21.088,47.102-47.102C383.712,97.585,370.642,58.334,333.464,36.151z"/>
	</g>
</g>
</svg>