<svg height="100" width="100" version="1.1" id="Capa_1" xmlns="http://www.w3.org/2000/svg" xmlns:xlink="http://www.w3.org/1999/xlink" x="0px" y="0px"
	 viewBox="0 0 442.782 442.782" style="enable-background:new 0 0 442.782 442.782;" xml:space="preserve">
<path d="M442.594,186.494c-1.163-5.467-6.943-7.745-9.118-8.603l-0.151-0.06c-20.601-8.161-39.355-26.824-57.491-44.873
	c-24.682-24.562-47.994-47.761-76.606-47.761c-29.141,0-44.336,7.556-56.546,13.627c-7.961,3.958-14.25,7.085-22.53,7.085
	c-6.484,0-12.389-2.875-19.865-6.515c-12.305-5.991-29.158-14.197-59.211-14.197c-28.847,0-54.002,25.805-78.329,50.761
	c-17.693,18.15-35.988,36.918-54.088,43.436c-2.095,0.755-7.104,3.102-8.38,8.586c-1.04,4.469,0.85,9.236,5.614,14.17
	c9.52,9.859,17.474,23.751,26.683,39.836c14.427,25.198,30.778,53.758,58.967,76.453c32.716,26.34,74.75,39.144,128.505,39.144
	c55.609,0,99.476-14.128,134.106-43.191c29.484-24.744,46.833-55.988,60.774-81.094c8.532-15.365,15.9-28.634,23.98-36.867
	C442.848,192.417,443.087,188.812,442.594,186.494z M146.395,221.441c-4.671-4.13-8.753-7.739-12.578-10.508
	c0.387-0.198,0.78-0.399,1.18-0.604c10.227-5.244,25.683-13.169,40.727-13.169c11.074,0,18.131,1.47,24.957,2.893
	c5.714,1.19,11.111,2.315,17.932,2.316c6.744-0.001,13.02-1.111,19.664-2.288c7.737-1.369,16.506-2.921,27.657-2.921
	c15.049,0,30.516,7.932,40.751,13.181c0.173,0.089,0.345,0.177,0.516,0.265c-3.813,2.667-8.039,6.256-12.865,10.355
	c-17.645,14.988-41.81,35.515-73.596,35.515C186.016,256.474,163.116,236.226,146.395,221.441z M302.58,312.137
	c-11.848,0-21.452-9.604-21.452-21.452s9.604-21.452,21.452-21.452s21.452,9.604,21.452,21.452S314.428,312.137,302.58,312.137z"/>
</svg>