<svg width="100" height="100" version="1.1" id="Capa_1" xmlns="http://www.w3.org/2000/svg" xmlns:xlink="http://www.w3.org/1999/xlink" x="0px" y="0px"
	 viewBox="0 0 419.182 419.182" style="enable-background:new 0 0 419.182 419.182;" xml:space="preserve">
<g>
	<g>
		<g>
			<path d="M303.539,197.48c-1.58,0-3.131-0.639-4.24-1.75c-1.12-1.119-1.76-2.67-1.76-4.25c0-1.579,0.64-3.119,1.76-4.239
				c1.109-1.11,2.66-1.761,4.24-1.761s3.13,0.65,4.24,1.761c1.119,1.12,1.76,2.66,1.76,4.239c0,1.591-0.641,3.131-1.76,4.25
				C306.669,196.842,305.119,197.48,303.539,197.48z"/>
		</g>
		<g>
			<path d="M303.539,221.141c-1.58,0-3.131-0.64-4.24-1.75c-1.12-1.119-1.76-2.67-1.76-4.25c0-1.58,0.64-3.119,1.76-4.239
				c1.109-1.12,2.66-1.761,4.24-1.761s3.13,0.641,4.24,1.761c1.119,1.12,1.76,2.659,1.76,4.239c0,1.58-0.641,3.131-1.76,4.25
				C306.658,220.501,305.119,221.141,303.539,221.141z"/>
		</g>
		<path d="M395.769,223.166c-0.002-0.007-0.004-0.014-0.006-0.02l-45.016-120.039c-2.32-7.402-10.943-21.055-27.526-21.055H307.32
			l-2.416-7.174c7.729-7.066,12.736-18.288,12.736-30.902V25.281C317.64,11.342,305.484,0,290.543,0h-9.6
			c-14.941,0-27.097,11.342-27.097,25.281v18.695c0,12.616,5.008,23.839,12.738,30.904l-2.415,7.172h-15.9
			c-16.679,0-25.306,13.814-27.565,21.185l-24.965,76.087l-23.314-44.701c-1.22-2.371-2.561-4.41-3.996-6.171
			c6.321-6.839,9.959-16.151,9.959-26.062c0-12.984-6.405-25.021-16.545-31.616c-2.775-19.791-20.656-35.112-42.247-35.112
			s-39.473,15.32-42.248,35.111c-10.14,6.595-16.545,18.632-16.545,31.617c0,9.91,3.643,19.215,9.963,26.052
			c-1.432,1.756-2.769,3.788-3.984,6.151l-44.164,84.682c-0.039,0.074-0.076,0.15-0.112,0.227
			c-2.187,4.664-3.836,15.109,5.622,21.297c2.059,1.316,4.928,2.27,8.098,2.27c4.869,0,10.451-2.246,14.912-8.863l33.386-47.254
			c0.365,0.518,0.727,1.017,1.077,1.477c-15.867,19.031-18.996,61.627-9.29,126.828c7.653,51.414,20.777,99.053,20.909,99.528
			c0.72,2.599,3.085,4.397,5.781,4.397h16.596h16.596c2.697,0,5.063-1.799,5.782-4.397c0.108-0.394,19.61-90.804,20.909-99.528
			c9.706-65.201,6.576-107.797-9.291-126.828c0.351-0.46,0.712-0.958,1.077-1.477l33.386,47.253
			c4.452,6.606,10.023,8.856,14.898,8.856c3.188,0,6.077-0.961,8.161-2.295c3.721-2.434,5.707-5.539,6.62-8.692l20.654-42.476
			v54.658c0,0.047,6.666,169.162,6.666,169.162c0.127,3.22,2.773,5.764,5.996,5.764h69.38c3.197,0,5.833-2.506,5.993-5.699
			c0,0,8.456-169.181,8.456-169.227v-56.232l25.855,50.311c2.376,4.926,9.125,13.262,19.349,13.262c8.91,0,13.38-3.82,15.561-7.025
			C399.231,239.301,399.27,232.1,395.769,223.166z M280.943,12h9.6c8.324,0,15.098,5.959,15.098,13.281v1.364l-37.291-8.67
			C271.053,14.38,275.686,12,280.943,12z M265.846,43.977V29.713l39.794,9.253v5.011c0,14.712-8.926,26.682-19.898,26.682
			C274.771,70.658,265.846,58.688,265.846,43.977z M285.744,99.959l-10.529-13.104l1.901-5.646c2.746,0.938,5.637,1.449,8.626,1.449
			c2.991,0,5.885-0.513,8.632-1.451l1.902,5.646L285.744,99.959z M293.679,109.243l-7.934,51.562l-7.933-51.559l3.252,4.048
			c1.184,1.475,2.922,2.241,4.677,2.242c0.001,0,0.001,0,0.002,0c0,0,0.001,0,0.002,0c1.755-0.001,3.493-0.768,4.678-2.241
			L293.679,109.243z M138.491,107.982c4.095-5.821,6.593-13.535,6.593-21.986V60.363c3.248,4.519,5.146,9.945,5.146,15.777
			c0,3.313,2.687,6,6,6c0.277,0,0.547-0.025,0.814-0.062c5.773,4.605,9.345,12.155,9.345,20.312c0,7.209-2.723,13.906-7.411,18.59
			c-6.324-3.005-13.331-3.412-19.891-3.412h-0.597V107.982z M82.16,82.081c0.264,0.035,0.53,0.06,0.804,0.06c3.313,0,6-2.688,6-6
			c0-15.703,13.742-28.479,30.634-28.479c4.764,0,9.276,1.017,13.301,2.828c-11.948,16.312-34.224,23.03-34.462,23.1
			c-2.563,0.746-4.325,3.094-4.325,5.762v6.645c0,8.451,2.498,16.165,6.593,21.986v9.586h-0.596c-6.562,0-13.571,0.407-19.895,3.409
			c-4.687-4.682-7.409-11.378-7.409-18.587C72.804,94.23,76.382,86.684,82.16,82.081z M133.084,67.832v18.164
			c0,11.273-6.176,20.797-13.486,20.797c-7.311,0-13.486-9.523-13.486-20.797v-2.365C112.098,81.37,123.234,76.406,133.084,67.832z
			 M113.597,407.182h-5.989c-2.467-9.395-8.4-32.882-13.839-61.139h19.828V407.182z M131.587,407.182h-5.989v-61.139h19.83
			C139.989,374.294,134.053,397.784,131.587,407.182z M151.03,313.387c-1.04,6.994-2.183,13.914-3.381,20.656h-28.052h-28.05
			c-1.192-6.708-2.331-13.593-3.367-20.554c-9.595-64.454-6.247-107.138,9.428-120.186c1.318-1.098,2.104-2.707,2.158-4.422
			c0.054-1.715-0.628-3.371-1.876-4.55c-0.082-0.077-8.234-8.03-8.406-16.997c-0.067-3.498,1.102-6.727,3.563-9.813h53.1
			c2.45,3.07,3.62,6.281,3.565,9.76c-0.143,9.021-8.34,16.984-8.407,17.051c-1.247,1.178-1.93,2.834-1.876,4.549
			c0.055,1.715,0.84,3.324,2.158,4.422C157.254,206.344,160.607,248.99,151.03,313.387z M204.672,230.642
			c-1.543,0.831-3.938,0.927-6.689-3.181c-0.027-0.042-37.327-52.837-37.327-52.837c0.61-2.232,1.007-4.596,1.054-7.06
			c0.144-7.467-2.746-14.276-8.589-20.241c-1.128-1.151-2.673-1.802-4.286-1.802H90.361c-1.612,0-3.157,0.65-4.285,1.802
			c-5.844,5.965-8.733,12.774-8.59,20.241c0.047,2.464,0.443,4.827,1.054,7.06l-37.242,52.713c-0.028,0.041-0.057,0.081-0.085,0.123
			c-2.744,4.097-5.133,4.013-6.677,3.189c-2.585-1.79-1.708-4.768-1.192-5.986l44.096-84.55
			c4.611-8.966,10.984-10.544,22.669-10.544h6.596c3.313,0,6-2.686,6-6v-6.005c2.194,0.795,4.505,1.229,6.894,1.229
			s4.699-0.435,6.894-1.229v6.005c0,3.314,2.687,6,6,6h6.597c11.685,0,18.057,1.578,22.684,10.574l44.068,84.496
			C206.388,225.949,207.226,228.904,204.672,230.642z M238.39,162.157l-24.898,51.204l-9.999-19.172l28.634-87.272
			c0.007-0.021,0.025-0.078,0.031-0.099c0.165-0.521,4.176-12.767,16.112-12.767h15.064l16.41,106.66v37.543H250.39V135.109
			c0-3.314-2.686-6-6-6c-3.313,0-6,2.686-6,6V162.157z M314.724,407.182h-22.982V267.664c0-3.314-2.686-6-6-6c-3.313,0-6,2.686-6,6
			v139.518H256.82l-6.188-156.926h71.94L314.724,407.182z M364.699,219.254l-29.817-57.186v-26.959c0-3.314-2.687-6-6-6
			c-3.314,0-6,2.686-6,6v103.146h-31.136v-37.543l16.412-106.66h15.063c11.938,0,15.948,12.245,16.103,12.732
			c0.037,0.124,0.079,0.247,0.125,0.37l42.039,112.1H364.699z M385.724,237.82c-0.768,1.128-2.822,1.775-5.639,1.775
			c-5.237,0-8.527-6.449-8.547-6.488l-0.898-1.854h15.171C386.896,235.528,386.071,237.311,385.724,237.82z"/>
	</g>
</g>
</svg>